<?xml version="1.0" encoding="UTF-8" standalone="no"?>
<svg
   xmlns:dc="http://purl.org/dc/elements/1.1/"
   xmlns:cc="http://creativecommons.org/ns#"
   xmlns:rdf="http://www.w3.org/1999/02/22-rdf-syntax-ns#"
   xmlns:svg="http://www.w3.org/2000/svg"
   xmlns="http://www.w3.org/2000/svg"
   xmlns:sodipodi="http://sodipodi.sourceforge.net/DTD/sodipodi-0.dtd"
   xmlns:inkscape="http://www.inkscape.org/namespaces/inkscape"
   inkscape:export-ydpi="96"
   inkscape:export-xdpi="96"
   inkscape:export-filename="C:\Users\Chris\mountain-dog-gatsby\static\logo.png"
   aria-hidden="true"
   focusable="false"
   data-prefix="fas"
   data-icon="paw"
   class="svg-inline--fa fa-paw fa-w-16"
   role="img"
   viewBox="0 0 512 512"
   version="1.1"
   id="svg4"
   sodipodi:docname="logo.svg"
   inkscape:version="1.0 (4035a4fb49, 2020-05-01)">
  <metadata
     id="metadata10">
    <rdf:RDF>
      <cc:Work
         rdf:about="">
        <dc:format>image/svg+xml</dc:format>
        <dc:type
           rdf:resource="http://purl.org/dc/dcmitype/StillImage" />
        <dc:title />
      </cc:Work>
    </rdf:RDF>
  </metadata>
  <defs
     id="defs8">
    <inkscape:path-effect
       effect="powerstroke"
       id="path-effect73"
       is_visible="true"
       lpeversion="1"
       offset_points="0,0.5"
       sort_points="true"
       interpolator_type="CubicBezierJohan"
       interpolator_beta="0.2"
       start_linecap_type="zerowidth"
       linejoin_type="extrp_arc"
       miter_limit="4"
       scale_width="1"
       end_linecap_type="zerowidth" />
  </defs>
  <sodipodi:namedview
     inkscape:document-rotation="0"
     pagecolor="#ffffff"
     bordercolor="#666666"
     borderopacity="1"
     objecttolerance="10"
     gridtolerance="10"
     guidetolerance="10"
     inkscape:pageopacity="0"
     inkscape:pageshadow="2"
     inkscape:window-width="1141"
     inkscape:window-height="805"
     id="namedview6"
     showgrid="false"
     inkscape:snap-global="false"
     inkscape:zoom="0.64453125"
     inkscape:cx="97.353009"
     inkscape:cy="389.87484"
     inkscape:window-x="0"
     inkscape:window-y="0"
     inkscape:window-maximized="0"
     inkscape:current-layer="svg4" />
  <path
     sodipodi:type="star"
     style="fill:#000000;fill-rule:evenodd;stroke:#000000"
     id="path91"
     sodipodi:sides="3"
     sodipodi:cx="256.71832"
     sodipodi:cy="326.93188"
     sodipodi:r1="300.60181"
     sodipodi:r2="150.3009"
     sodipodi:arg1="-1.5707963"
     sodipodi:arg2="-0.52359878"
     inkscape:flatsided="true"
     inkscape:rounded="0.1"
     inkscape:randomized="0"
     d="M 256.71833,26.330078 C 308.78409,26.33008 543.08,432.14252 517.04712,477.2328 491.01424,522.32307 22.422397,522.32305 -3.6104822,477.23278 -29.643361,432.14251 204.65257,26.330077 256.71833,26.330078 Z"
     inkscape:transform-center-y="-61.403842"
     transform="matrix(0.97279386,0,0,1.0542957,5.9794213,-27.23254)" />
  <path
     fill="currentColor"
     d="m 253.62444,253.73963 c -37.78036,0 -91.34652,71.74365 -91.34652,117.03053 0,20.39632 12.7552,32.58152 34.13124,32.58152 23.23627,0 38.57964,-14.65731 57.21528,-14.65731 18.79739,0 34.18357,14.65731 57.21525,14.65731 21.37604,0 34.13125,-12.1852 34.13125,-32.58152 0,-45.28688 -53.56616,-117.03053 -91.3465,-117.03053 z m -70.07039,-7.36957 c -4.94794,-20.25023 -20.19138,-33.36466 -34.0456,-29.29708 -13.85423,4.06758 -21.07157,23.78014 -16.12363,44.03037 4.94795,20.25023 20.19139,33.36465 34.04563,29.29708 13.8542,-4.06758 21.07153,-23.78014 16.1236,-44.03037 z m 40.30665,-12.1443 c 14.72011,-4.75719 22.0849,-29.18603 16.45188,-54.56165 -5.63304,-25.37562 -22.13249,-42.08425 -36.85261,-37.32706 -14.72011,4.75721 -22.08492,29.18605 -16.45188,54.56167 5.63304,25.37562 22.13725,42.09009 36.85261,37.32704 z m 133.87497,-17.14693 c -13.85422,-4.06758 -29.09291,9.04684 -34.0456,29.29707 -4.94795,20.25023 2.26938,39.96279 16.1236,44.03036 13.85421,4.06759 29.09292,-9.04685 34.0456,-29.29708 4.94793,-20.25021 -2.26938,-39.96278 -16.1236,-44.03035 z m -74.34752,17.14693 c 14.72012,4.75721 31.21959,-11.95142 36.85263,-37.32704 5.63304,-25.37562 -1.73178,-49.79862 -16.45189,-54.56167 -14.72011,-4.76302 -31.21958,11.95144 -36.85261,37.32706 -5.63304,25.37562 1.73178,49.80446 16.45187,54.56165 z"
     id="path2"
     style="fill:#ffffff;stroke-width:0.5273" />
</svg>
